<svg width="197" height="39" viewBox="0 0 197 39" fill="none" xmlns="http://www.w3.org/2000/svg">
<path fill-rule="evenodd" clip-rule="evenodd" d="M0.00585938 9.47678H38.4686V0H0.00585938V9.47678Z" fill="#FDC82F"/>
<path fill-rule="evenodd" clip-rule="evenodd" d="M79.7484 28.742H67.8783L71.9118 14.3083H83.5006L82.5568 17.6571H75.6389L75.0518 19.7338H80.9226L79.9783 23.1087H74.1069L73.4685 25.3671H80.6927L79.7484 28.742ZM0.00585938 39H38.4691V14.2152H0.00585938V39ZM61.1164 24.2246C60.8614 24.2512 60.6058 24.2512 60.3512 24.2512H58.0021L56.7514 28.742H52.08L56.1386 14.3088H61.1139V14.3083H62.9775C67.0613 14.3083 68.4906 16.2029 67.6741 19.1628C66.8575 22.0951 64.7394 23.9908 61.1164 24.2246ZM61.1164 17.6571H59.84L58.9696 20.8697L61.1139 20.8758C62.0834 20.8237 62.9005 20.3565 63.232 19.1884C63.5898 17.8382 62.1599 17.6565 61.1647 17.6565H61.1164V17.6571ZM173.38 23.8347H174.86L174.809 18.643L173.379 21.1874L171.924 23.8347H173.38ZM173.38 14.7754L173.686 14.3083H178.434L179.481 28.742H174.835V26.8463H173.38H170.189L169.117 28.742H164.828H164.548L164.828 28.3004L173.38 14.7754ZM196.941 18.4875C197.298 15.9696 196.073 13.9189 192.142 13.9189C188.568 13.9189 185.53 15.4503 184.688 18.5391C183.131 24.043 191.734 22.5377 191.121 24.7444C190.943 25.4188 190.049 25.8082 188.901 25.8082C188.441 25.8082 187.981 25.6787 187.675 25.4449C187.343 25.185 187.164 24.8217 187.215 24.3029H182.748C182.135 26.899 183.948 29.1313 187.701 29.1313C191.606 29.1313 194.822 27.4961 195.741 24.1473C197.222 18.9034 188.67 20.2276 189.282 18.0725C189.41 17.5532 189.947 17.2416 190.993 17.2416C191.427 17.2416 191.835 17.3199 192.115 17.5015C192.397 17.6832 192.575 17.9942 192.499 18.4875H196.941ZM164.828 18.6957C164.88 18.5918 164.905 18.5141 164.931 18.4102C165.236 17.3199 165.236 16.4373 164.828 15.788C164.216 14.7754 162.658 14.3083 159.774 14.3083H158.216H153.061L149.027 28.742H153.673L155.102 23.7053H156.507C157.374 23.7053 157.91 23.8091 158.216 24.0425C158.701 24.4062 158.625 25.0811 158.293 26.2231C158.267 26.3275 158.242 26.4047 158.216 26.483C157.91 27.625 157.808 28.4559 157.834 28.742H158.216H162.556L162.658 28.3004C162.122 28.3004 162.352 27.6772 162.888 25.7826C163.704 22.8749 162.888 22.5116 161.56 21.9401C163.246 21.4985 164.343 20.2271 164.828 18.6957ZM158.216 20.5382C159.416 20.4609 160.156 20.071 160.412 19.1628C160.693 18.1503 160.029 17.6571 158.957 17.6571H158.216H156.787L155.97 20.5382H157.808C157.961 20.5382 158.089 20.5382 158.216 20.5382ZM140.578 28.7159C143.795 28.5342 146.169 27.3661 146.985 24.4067C147.419 22.8232 146.985 21.4735 145.556 21.0836C146.628 20.5131 147.879 19.4223 148.287 17.9426C149.078 15.0609 146.756 14.3083 143.565 14.3083H140.578H136.749L132.715 28.742H139.659C139.966 28.742 140.271 28.742 140.578 28.7159ZM140.578 17.6571H142.11C143.105 17.6571 143.999 17.6832 143.693 18.8252C143.463 19.6566 142.672 20.0715 141.728 20.0715H140.579H139.813L140.477 17.6576H140.578V17.6571ZM140.578 22.7193C142.034 22.7193 143.105 22.7966 142.748 24.043C142.467 25.0816 141.625 25.341 140.578 25.3671C140.502 25.3671 140.425 25.3671 140.349 25.3671H138.332L139.072 22.7193H140.553C140.553 22.7193 140.553 22.7193 140.578 22.7193ZM123.934 25.3927C125.313 24.8478 126.232 23.3415 126.742 21.4463C127.303 19.4744 127.1 17.3971 125.032 17.4488C124.624 17.4488 124.267 17.5271 123.934 17.6565C122.479 18.2536 121.586 19.9666 121.178 21.4463C120.641 23.2903 120.564 25.6004 122.785 25.6004C123.195 25.6009 123.577 25.5232 123.934 25.3927ZM123.934 14.1528C124.624 13.9967 125.339 13.9189 126.053 13.9189C131.133 13.9189 132.486 17.631 131.413 21.4468C130.265 25.5237 127.303 28.1193 123.934 28.898C123.245 29.0535 122.531 29.1313 121.791 29.1313C117.348 29.1313 115.153 26.328 116.506 21.3957C117.579 17.6049 120.437 14.931 123.934 14.1528ZM107.572 26.483C107.598 26.4052 107.624 26.3275 107.648 26.2231C107.98 25.0816 108.057 24.4062 107.572 24.0425C107.266 23.8091 106.73 23.7053 105.862 23.7053H104.458L103.08 28.742H98.9443H98.4085L98.9443 26.8463L102.441 14.3083H107.572H109.129C113.877 14.3083 115.052 15.6064 114.286 18.4102C113.8 20.0715 112.703 21.4735 110.916 21.9406C112.244 22.5121 113.061 22.8754 112.244 25.7831C111.708 27.6777 111.478 28.3009 112.04 28.3009L111.912 28.7425H107.573H107.189C107.164 28.4565 107.291 27.6255 107.572 26.483ZM107.572 20.5382C108.772 20.4609 109.512 20.071 109.767 19.1628C110.048 18.1503 109.384 17.6571 108.312 17.6571H107.572H106.142L105.325 20.5382H107.164C107.317 20.5382 107.444 20.5382 107.572 20.5382ZM98.9443 16.2029L99.4801 14.3083H98.9443H86.4363L85.3898 18.0981H89.5768L86.5897 28.742H91.236L94.2225 18.0981H98.409L98.9443 16.2029Z" fill="#008542"/>
<path fill-rule="evenodd" clip-rule="evenodd" d="M38.4708 14.2142V9.47119H0V14.2142H7.40236L3.30145 28.6417H11.6975C15.3345 28.6417 15.9684 27.778 16.7065 27.1482C17.6921 26.3065 18.2209 24.306 17.7781 22.9143C17.4652 21.9294 16.549 21.3338 16.4489 21.3046C17.5854 20.7684 18.2465 19.5927 18.328 19.4197C18.7497 18.5279 19.0767 16.9131 18.0282 15.6135C17.1563 14.5335 15.4628 14.2362 14.2342 14.2147H23.2229L19.1074 28.6714H23.2727L24.7946 23.1901H27.1738C28.9036 23.1901 28.7461 24.285 28.7888 24.7562L28.9252 28.7875L32.7932 28.7865C32.7932 28.7865 32.6186 24.2625 32.604 23.9314C32.5527 22.7695 31.7955 22.2456 31.1495 22.2456C32.3886 21.9048 33.4648 20.7613 33.895 20.0276C34.3911 19.1818 34.7639 17.8356 34.2733 16.4992C33.5614 14.5601 31.726 14.2377 30.4441 14.2147H38.4708V14.2142ZM26.4594 17.1214H29.4887C30.9246 17.1214 30.9819 18.1145 30.9819 18.3974C30.9819 19.057 30.4104 20.355 28.6671 20.355H25.58C25.5805 20.355 26.4428 17.2007 26.4594 17.1214ZM9.16779 22.5515H11.94C13.2974 22.5515 13.3749 22.926 13.562 23.2479C13.7482 23.5666 13.6621 24.2405 13.5338 24.4728C13.3718 24.7649 13.0981 25.6695 11.3614 25.6695H8.2813C8.2813 25.669 9.16628 22.5551 9.16779 22.5515ZM10.6837 17.1045H13.8906C14.527 17.1045 15.1051 17.5205 15.1051 18.2056C15.1051 19.1296 14.3806 19.7768 13.3759 19.7768H9.9436L10.6837 17.1045Z" fill="white"/>
</svg>
