<svg width="20" height="20" viewBox="0 0 20 20" fill="none" xmlns="http://www.w3.org/2000/svg">
<g clip-path="url(#clip0_0_8682)">
<path d="M5.83333 5.83415H10C10.2208 5.83415 10.4333 5.74665 10.5892 5.58998C10.7458 5.43415 10.8333 5.22165 10.8333 5.00081C10.8333 4.77998 10.7458 4.56748 10.5892 4.41165C10.4333 4.25498 10.2208 4.16748 10 4.16748H5.83333C5.6125 4.16748 5.4 4.25498 5.24417 4.41165C5.0875 4.56748 5 4.77998 5 5.00081C5 5.22165 5.0875 5.43415 5.24417 5.58998C5.4 5.74665 5.6125 5.83415 5.83333 5.83415Z" fill="#101213"/>
<path d="M14.1169 10.8992H9.95019C9.72936 10.8992 9.51686 10.9867 9.36103 11.1434C9.20436 11.2992 9.11686 11.5117 9.11686 11.7326C9.11686 11.9534 9.20436 12.1659 9.36103 12.3218C9.51686 12.4784 9.72936 12.5659 9.95019 12.5659H14.1169C14.3377 12.5659 14.5502 12.4784 14.706 12.3218C14.8627 12.1659 14.9502 11.9534 14.9502 11.7326C14.9502 11.5117 14.8627 11.2992 14.706 11.1434C14.5502 10.9867 14.3377 10.8992 14.1169 10.8992Z" fill="#101213"/>
<path d="M12.4251 5.83415L14.1185 5.84332C14.3393 5.84332 14.551 5.75582 14.7076 5.59998C14.8643 5.44332 14.9518 5.23165 14.9518 5.00998C14.9518 4.78915 14.8643 4.57748 14.7076 4.42081C14.551 4.26498 14.3393 4.17665 14.1185 4.17665L12.4251 4.16748C12.2043 4.16748 11.9918 4.25498 11.836 4.41165C11.6793 4.56748 11.5918 4.77998 11.5918 5.00081C11.5918 5.22165 11.6793 5.43415 11.836 5.58998C11.9918 5.74665 12.2043 5.83415 12.4251 5.83415Z" fill="#101213"/>
<path d="M7.52507 10.8992L5.83173 10.8901C5.6109 10.8901 5.39923 10.9776 5.24256 11.1334C5.0859 11.2901 4.9984 11.5018 4.9984 11.7234C4.9984 11.9443 5.0859 12.1559 5.24256 12.3126C5.39923 12.4684 5.6109 12.5568 5.83173 12.5568L7.52507 12.5659C7.7459 12.5659 7.9584 12.4784 8.11423 12.3218C8.2709 12.1659 8.3584 11.9534 8.3584 11.7326C8.3584 11.5118 8.2709 11.2993 8.11423 11.1434C7.9584 10.9868 7.7459 10.8992 7.52507 10.8992Z" fill="#101213"/>
<path d="M14.1667 7.5H5.83333C5.6125 7.5 5.4 7.5875 5.24417 7.74417C5.0875 7.9 5 8.1125 5 8.33333C5 8.55417 5.0875 8.76667 5.24417 8.9225C5.4 9.07917 5.6125 9.16667 5.83333 9.16667H14.1667C14.3875 9.16667 14.6 9.07917 14.7558 8.9225C14.9125 8.76667 15 8.55417 15 8.33333C15 8.1125 14.9125 7.9 14.7558 7.74417C14.6 7.5875 14.3875 7.5 14.1667 7.5Z" fill="#101213"/>
<path d="M0 9.44584C0 9.225 0.0833659 9.0125 0.241699 8.85667C0.400033 8.7 0.608333 8.6125 0.833333 8.6125C1.05 8.6125 1.26673 8.7 1.41673 8.85667C1.57506 9.0125 1.66667 9.225 1.66667 9.44584V13.3333C1.66667 13.7758 1.84173 14.1992 2.15006 14.5117C2.46673 14.8242 2.89167 15 3.33333 15H5.75002C6.14169 15 6.52505 15.1392 6.82505 15.3942L10 18.075L13.175 15.3942C13.475 15.14 13.8501 15 14.2501 15H16.6667C17.1083 15 17.5334 14.8242 17.8417 14.5117C18.1584 14.1992 18.3333 13.7758 18.3333 13.3333V3.33334C18.3333 2.89167 18.1584 2.4675 17.8417 2.155C17.5334 1.8425 17.1083 1.66667 16.6667 1.66667H3.33333C2.89167 1.66667 2.46673 1.8425 2.15006 2.155C1.84173 2.4675 1.66667 2.89167 1.66667 3.33334V5.15C1.66667 5.37 1.57506 5.58 1.41673 5.735C1.26673 5.89083 1.05 5.97916 0.833333 5.97916C0.608333 5.97916 0.400033 5.89083 0.241699 5.735C0.0833659 5.58 0 5.37 0 5.15V3.33334C0 2.44917 0.350037 1.60167 0.975037 0.976665C1.60004 0.351665 2.45 0 3.33333 0H16.6667C17.55 0 18.3917 0.351665 19.0167 0.976665C19.6417 1.60167 20 2.44917 20 3.33334V13.3333C20 14.2175 19.6417 15.065 19.0167 15.6909C18.3917 16.3159 17.55 16.6667 16.6667 16.6667H14.2501L10.5333 19.8025C10.3833 19.93 10.1918 20 9.99176 20C9.80009 20 9.60841 19.93 9.45841 19.8025L5.75002 16.6667H3.33333C2.45 16.6667 1.60004 16.3159 0.975037 15.6909C0.350037 15.065 0 14.2175 0 13.3333V9.44584Z" fill="#101213"/>
</g>
<defs>
<clipPath id="clip0_0_8682">
<rect width="20" height="20" fill="white"/>
</clipPath>
</defs>
</svg>
