<svg width="17" height="20" viewBox="0 0 17 20" fill="none" xmlns="http://www.w3.org/2000/svg">
<path d="M3.23321 5.72476C3.20821 5.7481 3.19149 5.7756 3.17483 5.80477H2.76652C2.59152 5.80477 2.44986 5.94974 2.44986 6.1289C2.44986 6.30723 2.59152 6.45304 2.76652 6.45304L4.01647 6.45141C4.06647 6.52974 4.13311 6.60224 4.19977 6.66807V8.38716C4.19977 9.67794 4.83312 10.8212 5.80809 11.5245V12.2503L5.5664 12.3745L3.2915 12.882C1.35824 13.3119 0 14.9952 0 16.976V20H16.1327V19.47C16.1327 19.4684 16.1327 19.4667 16.1327 19.4642V18.0909C16.1327 17.9226 15.741 17.7576 15.5744 17.7576C15.4077 17.7576 15.0243 17.9226 15.0243 18.0909V18.7742H12.9078V13.9336C13.8078 14.2569 14.6494 14.7485 15.0243 15.5035C15.066 15.7127 15.0827 15.9443 15.0827 16.2018V16.6985C15.6494 17.5193 16.1327 16.6893 16.1327 16.6893V16.5818C16.141 16.5676 16.141 16.5518 16.141 16.5368V15.9927C16.141 15.9877 16.1327 15.9827 16.1327 15.9768C16.1327 15.4702 15.991 15.0244 15.7577 14.636C15.516 14.2094 15.166 13.8686 14.7327 13.597C14.1077 13.1703 13.3328 12.877 12.5495 12.7036L10.3246 12.2087V11.5245C11.2996 10.8212 11.9412 9.67794 11.9412 8.38716V6.66721C12.0078 6.60138 12.0661 6.52974 12.1245 6.45141L13.3661 6.45304C13.5494 6.45304 13.6911 6.30723 13.6911 6.1289C13.6911 5.94974 13.5494 5.80477 13.3661 5.80477H13.0245C13.0078 5.7406 12.9662 5.68561 12.9078 5.64812V5.16143C12.9078 2.85236 11.2412 0.85995 8.99125 0.421634C8.89959 0.176644 8.66629 0 8.3913 0H7.7413C7.46631 0 7.23301 0.176644 7.14135 0.421634C4.89977 0.85995 3.23321 2.85236 3.23321 5.16143V5.72476ZM5.79974 13.4269L6.2164 13.3361L7.74964 14.0511L8.0663 14.1486L8.07464 18.7742L4.07486 18.7809V16.5885C4.07486 16.4102 3.84154 16.2743 3.66655 16.2743C3.48322 16.2743 3.22487 16.4018 3.22487 16.581V18.1926C3.22487 18.1942 3.23321 18.1968 3.23321 18.1984V18.7742H1.10825V16.5427C1.09159 15.3394 1.93325 14.546 3.22487 14.2019L3.25813 14.2977V15.5377C3.25813 15.716 3.47488 15.8493 3.65821 15.8493C3.8332 15.8493 4.07486 15.661 4.07486 15.4827V13.8953L5.79974 13.4269ZM8.37462 18.7742H8.07464H8.37462ZM8.63299 13.9811L9.92455 13.3361L10.333 13.4278L11.6746 13.7911V18.7742H8.07464L8.0663 14.1486L8.63299 13.9811ZM7.74964 14.0511L8.0663 14.1486L7.74964 14.0511L7.49971 13.9802L7.74964 14.0511ZM8.36628 14.0611L8.63299 13.9811L8.36628 14.0611ZM6.2164 13.3361L7.49971 13.9802L6.2164 13.3361ZM9.58296 11.9462V12.2336L8.0663 12.9895L6.55808 12.2336V11.9462C7.02473 12.1445 7.53299 12.257 8.0663 12.257C8.60795 12.257 9.11632 12.1445 9.58296 11.9462ZM10.5579 9.21293C10.7245 9.1646 10.8829 9.1046 11.0412 9.03294C10.7829 10.4337 9.54958 11.0437 8.0663 11.0437C6.58302 11.0437 5.35812 10.4337 5.0998 9.03294C5.24979 9.1046 5.41642 9.1646 5.58308 9.21293C5.93306 9.33293 6.29976 9.39461 6.66641 9.39461H7.15803C7.47468 9.39461 7.74964 9.19627 7.84963 8.90044L7.95797 8.56797C7.9913 8.47131 8.14964 8.47133 8.18297 8.56716L8.29131 8.90131C8.3913 9.1963 8.66635 9.39461 8.97467 9.39461H9.47463C9.84128 9.39461 10.2079 9.33293 10.5579 9.21293ZM11.0912 8.28798L10.8662 8.40298C10.4579 8.60297 10.0163 8.70962 9.56628 8.70962H9.03296C8.98296 8.70962 8.93295 8.67465 8.91628 8.62381L8.79961 8.26799C8.69128 7.95301 8.39962 7.7422 8.0663 7.7422C7.73298 7.7422 7.44132 7.95301 7.33299 8.26799L7.21632 8.62381C7.19965 8.67465 7.15807 8.70962 7.09974 8.70962H6.57476C6.12478 8.70962 5.67475 8.60297 5.27476 8.40298L5.04141 8.28798V7.22469C5.16641 7.25802 5.29146 7.27718 5.41646 7.27718H10.7162C10.8496 7.27718 10.9745 7.25802 11.0912 7.22469V8.28798ZM5.08312 5.97642C5.03312 5.99225 5.15809 5.99806 5.05809 5.79724L4.97478 5.63057H4.48317V5.02563C4.48317 3.20237 5.21645 2.07324 6.96639 1.65826V3.22654C6.96639 3.39404 7.29135 3.5107 7.45801 3.5107C7.633 3.5107 7.76632 3.37486 7.76632 3.20737V1.22579H8.36628V3.20737C8.36628 3.37486 8.50793 3.5107 8.67459 3.5107C8.84125 3.5107 9.19958 3.39902 9.19958 3.23153V1.66324C10.9495 2.07823 11.6995 3.16738 11.6995 4.99064V5.59644H11.2079L11.1246 5.76225C10.9912 6.03307 10.8246 5.96391 10.5246 5.96391H5.21647C5.14148 5.96391 5.09978 5.97059 5.08312 5.97642Z" fill="#101213"/>
</svg>
