<svg width="20" height="20" viewBox="0 0 20 20" fill="none" xmlns="http://www.w3.org/2000/svg">
<g clip-path="url(#clip0_0_8698)">
<path d="M18.0622 7.51441C18.6542 7.32561 18.9742 7.54961 19.0062 7.68241C19.1342 8.30881 19.1982 8.95121 19.1982 9.60001C19.1982 11.4984 18.6382 13.3544 17.5822 14.9336C16.5262 16.512 15.0302 17.7424 13.2702 18.4696C11.5182 19.196 9.59026 19.3856 7.72626 19.0152C5.86226 18.6448 4.15825 17.7312 2.81425 16.388C1.47025 15.0456 0.558219 13.3352 0.182219 11.4728C-0.185781 9.61041 0.00626965 7.6808 0.73427 5.9264C1.45427 4.172 2.68621 2.67281 4.27021 1.6176C5.84621 0.563203 7.70223 0 9.59824 0C12.1422 0.0024 14.5822 1.01521 16.3822 2.81521C17.2062 3.63681 17.7742 4.47359 18.2462 5.51199C18.2942 5.61759 18.3422 5.94402 17.7822 6.22562C17.1982 6.51842 16.8142 6.14481 16.7662 6.03441C16.5902 5.67281 16.4782 5.49121 16.2542 5.15521C15.3742 3.84 14.1262 2.81439 12.6622 2.20879C11.1982 1.60319 9.59018 1.44479 8.03818 1.75359C6.48618 2.06239 5.06218 2.82399 3.94218 3.94319C2.82218 5.06159 2.06219 6.48722 1.75019 8.03922C1.44619 9.59122 1.60624 11.2 2.20624 12.6616C2.81424 14.1232 3.8382 15.3728 5.1582 16.252C6.4702 17.1312 8.01423 17.6 9.59824 17.6C11.7182 17.5976 13.7582 16.7544 15.2542 15.2544C16.7502 13.7544 17.5982 11.7208 17.5982 9.60001C17.5982 9.14481 17.5582 8.692 17.4862 8.2472C17.4622 8.1232 17.5102 7.68961 18.0622 7.51441Z" fill="#101213"/>
<path d="M8.5782 15.01V7.55587H10.6084V15.01H8.5782ZM9.60073 6.41479C9.21543 6.41479 8.93386 6.31105 8.74121 6.1184C8.53374 5.94057 8.44482 5.65901 8.44482 5.30334C8.44482 4.94768 8.53374 4.66611 8.74121 4.47346C8.93386 4.28081 9.21543 4.19189 9.60073 4.19189C9.98603 4.19189 10.2824 4.28081 10.4751 4.47346C10.6529 4.66611 10.7566 4.94768 10.7566 5.30334C10.7566 5.65901 10.6529 5.94057 10.4751 6.1184C10.2824 6.31105 9.98603 6.41479 9.60073 6.41479Z" fill="#101213"/>
</g>
<defs>
<clipPath id="clip0_0_8698">
<rect width="20" height="20" fill="white"/>
</clipPath>
</defs>
</svg>
