<svg width="120" height="24" viewBox="0 0 120 24" fill="none" xmlns="http://www.w3.org/2000/svg">
<path fill-rule="evenodd" clip-rule="evenodd" d="M0.00390625 5.68962H23.433V0H0.00390625V5.68962Z" fill="#FDC82F"/>
<path fill-rule="evenodd" clip-rule="evenodd" d="M48.578 17.2558H41.3475L43.8045 8.59021H50.8637L50.2887 10.6007H46.0748L45.7172 11.8476H49.2933L48.7181 13.8737H45.1416L44.7527 15.2296H49.1533L48.578 17.2558ZM0.00390625 23.4145H23.4333V8.5343H0.00390625V23.4145ZM37.2286 14.5437C37.0732 14.5597 36.9176 14.5597 36.7625 14.5597H35.3316L34.5697 17.2558H31.7242L34.1964 8.59052H37.2271V8.59021H38.3622C40.8498 8.59021 41.7205 9.72771 41.2231 11.5048C40.7257 13.2652 39.4355 14.4033 37.2286 14.5437ZM37.2286 10.6007H36.4511L35.9209 12.5295L37.2271 12.5332C37.8177 12.5019 38.3154 12.2214 38.5173 11.5201C38.7352 10.7095 37.8642 10.6004 37.258 10.6004H37.2286V10.6007ZM105.612 14.3096H106.514L106.483 11.1927L105.612 12.7203L104.726 14.3096H105.612ZM105.612 8.87067L105.799 8.59021H108.691L109.329 17.2558H106.499V16.1177H105.612H103.669L103.015 17.2558H100.403H100.232L100.403 16.9907L105.612 8.87067ZM119.964 11.0993C120.182 9.58763 119.436 8.35645 117.041 8.35645C114.864 8.35645 113.014 9.27584 112.501 11.1303C111.552 14.4347 116.792 13.5309 116.419 14.8558C116.311 15.2607 115.766 15.4944 115.067 15.4944C114.787 15.4944 114.507 15.4167 114.32 15.2763C114.118 15.1203 114.009 14.9022 114.04 14.5907H111.319C110.946 16.1493 112.05 17.4896 114.336 17.4896C116.715 17.4896 118.674 16.5078 119.234 14.4973C120.135 11.349 114.926 12.144 115.299 10.8501C115.377 10.5384 115.704 10.3513 116.341 10.3513C116.605 10.3513 116.854 10.3983 117.025 10.5073C117.197 10.6164 117.305 10.8031 117.259 11.0993H119.964ZM100.403 11.2243C100.435 11.1619 100.45 11.1152 100.466 11.0529C100.652 10.3983 100.652 9.86839 100.403 9.47858C100.03 8.87067 99.0816 8.59021 97.3244 8.59021H96.3759H93.2352L90.7782 17.2558H93.6081L94.4788 14.2319H95.3345C95.8628 14.2319 96.1892 14.2943 96.3755 14.4343C96.6713 14.6528 96.6247 15.0579 96.4224 15.7436C96.4065 15.8062 96.3912 15.8526 96.3755 15.8996C96.1892 16.5852 96.127 17.0841 96.1426 17.2558H96.3755H99.0191L99.0813 16.9907C98.755 16.9907 98.8947 16.6166 99.2214 15.4791C99.7188 13.7334 99.2214 13.5153 98.4126 13.1721C99.4393 12.907 100.108 12.1437 100.403 11.2243ZM96.3759 12.3305C97.1068 12.2841 97.5576 12.05 97.7133 11.5048C97.8843 10.8968 97.4801 10.6007 96.827 10.6007H96.3755H95.5049L95.0072 12.3305H96.127C96.2205 12.3305 96.2983 12.3305 96.3759 12.3305ZM85.6317 17.2401C87.5913 17.1311 89.0372 16.4298 89.5346 14.6531C89.7988 13.7023 89.5346 12.892 88.6639 12.6579C89.3167 12.3154 90.0789 11.6605 90.3277 10.7721C90.8095 9.04208 89.3948 8.59021 87.4509 8.59021H85.6314H83.2992L80.8423 17.2558H85.0718C85.2588 17.2558 85.4448 17.2558 85.6317 17.2401ZM85.6317 10.6007H86.5646C87.1711 10.6007 87.7154 10.6164 87.5288 11.302C87.389 11.8012 86.9069 12.0503 86.332 12.0503H85.632H85.1659L85.5701 10.601H85.6317V10.6007ZM85.6317 13.64C86.5183 13.64 87.1711 13.6864 86.9535 14.4347C86.7822 15.0582 86.2695 15.214 85.6317 15.2296C85.5855 15.2296 85.5383 15.2296 85.492 15.2296H84.2634L84.7145 13.64H85.6164C85.6164 13.64 85.6164 13.64 85.6317 13.64ZM75.4932 15.245C76.3329 14.9179 76.8928 14.0135 77.2036 12.8757C77.5456 11.6918 77.4215 10.4447 76.1619 10.4757C75.9134 10.4757 75.6958 10.5227 75.4932 10.6004C74.6069 10.9589 74.0629 11.9873 73.8141 12.8757C73.4874 13.9828 73.4405 15.3697 74.7932 15.3697C75.0427 15.37 75.2759 15.3233 75.4932 15.245ZM75.4932 8.49683C75.9134 8.40314 76.3488 8.35645 76.784 8.35645C79.8784 8.35645 80.7025 10.585 80.0491 12.876C79.3498 15.3236 77.5456 16.882 75.4932 17.3495C75.0736 17.4429 74.6385 17.4896 74.1876 17.4896C71.4815 17.4896 70.1444 15.8065 70.9685 12.8453C71.6219 10.5694 73.3632 8.96405 75.4932 8.49683ZM65.5266 15.8996C65.5422 15.8529 65.5578 15.8062 65.5728 15.7436C65.7751 15.0582 65.822 14.6528 65.5266 14.4343C65.3399 14.2943 65.0135 14.2319 64.4849 14.2319H63.6298L62.7901 17.2558H60.271H59.9446L60.271 16.1177L62.4012 8.59021H65.5266H66.4748C69.3672 8.59021 70.0825 9.36953 69.6161 11.0529C69.3203 12.0503 68.6519 12.892 67.5637 13.1724C68.3721 13.5156 68.8698 13.7337 68.3721 15.4794C68.0457 16.6169 67.906 16.991 68.248 16.991L68.1702 17.2561H65.5269H65.2934C65.2777 17.0844 65.3556 16.5855 65.5266 15.8996ZM65.5266 12.3305C66.2575 12.2841 66.708 12.05 66.8637 11.5048C67.0347 10.8968 66.6305 10.6007 65.9774 10.6007H65.5263H64.6553L64.1579 12.3305H65.2777C65.3709 12.3305 65.4487 12.3305 65.5266 12.3305ZM60.271 9.72771L60.5974 8.59021H60.271H52.6519L52.0144 10.8655H54.5649L52.7454 17.2558H55.5756L57.3948 10.8655H59.9449L60.271 9.72771Z" fill="#008542"/>
<path fill-rule="evenodd" clip-rule="evenodd" d="M23.434 8.53361V5.68604H0V8.53361H4.50905L2.01104 17.1955H7.12536C9.34081 17.1955 9.72696 16.677 10.1765 16.2989C10.7769 15.7936 11.099 14.5925 10.8293 13.7569C10.6387 13.1656 10.0806 12.808 10.0196 12.7905C10.7119 12.4686 11.1146 11.7627 11.1643 11.6589C11.4211 11.1235 11.6203 10.154 10.9816 9.37375C10.4505 8.72529 9.41896 8.54682 8.67057 8.53392H14.1459L11.639 17.2133H14.1762L15.1033 13.9225H16.5526C17.6062 13.9225 17.5103 14.5799 17.5364 14.8628L17.6194 17.2831L19.9755 17.2825C19.9755 17.2825 19.8692 14.5664 19.8603 14.3676C19.829 13.67 19.3678 13.3554 18.9743 13.3554C19.7291 13.1509 20.3847 12.4643 20.6467 12.0238C20.9489 11.516 21.176 10.7078 20.8772 9.90549C20.4435 8.74127 19.3255 8.54774 18.5446 8.53392H23.434V8.53361ZM16.1174 10.279H17.9626C18.8373 10.279 18.8722 10.8753 18.8722 11.0451C18.8722 11.4411 18.5241 12.2204 17.4622 12.2204H15.5817C15.582 12.2204 16.1073 10.3266 16.1174 10.279ZM5.58444 13.5391H7.27308C8.09993 13.5391 8.14712 13.764 8.26113 13.9572C8.37452 14.1486 8.32211 14.5531 8.24396 14.6926C8.14528 14.868 7.97856 15.4111 6.92064 15.4111H5.04445C5.04445 15.4108 5.58352 13.5413 5.58444 13.5391ZM6.50783 10.2689H8.46125C8.84893 10.2689 9.20106 10.5186 9.20106 10.9299C9.20106 11.4847 8.75975 11.8733 8.14773 11.8733H6.05702L6.50783 10.2689Z" fill="white"/>
</svg>
